<svg width="25" height="24" viewBox="0 0 25 24" fill="none" xmlns="http://www.w3.org/2000/svg">
<path d="M3.30029 6C3.30029 5.80109 3.37931 5.61032 3.51996 5.46967C3.66062 5.32902 3.85138 5.25 4.05029 5.25H20.5503C20.7492 5.25 20.94 5.32902 21.0806 5.46967C21.2213 5.61032 21.3003 5.80109 21.3003 6C21.3003 6.19891 21.2213 6.38968 21.0806 6.53033C20.94 6.67098 20.7492 6.75 20.5503 6.75H4.05029C3.85138 6.75 3.66062 6.67098 3.51996 6.53033C3.37931 6.38968 3.30029 6.19891 3.30029 6ZM4.05029 12.75H10.8003C10.9992 12.75 11.19 12.671 11.3306 12.5303C11.4713 12.3897 11.5503 12.1989 11.5503 12C11.5503 11.8011 11.4713 11.6103 11.3306 11.4697C11.19 11.329 10.9992 11.25 10.8003 11.25H4.05029C3.85138 11.25 3.66062 11.329 3.51996 11.4697C3.37931 11.6103 3.30029 11.8011 3.30029 12C3.30029 12.1989 3.37931 12.3897 3.51996 12.5303C3.66062 12.671 3.85138 12.75 4.05029 12.75ZM12.3003 17.25H4.05029C3.85138 17.25 3.66062 17.329 3.51996 17.4697C3.37931 17.6103 3.30029 17.8011 3.30029 18C3.30029 18.1989 3.37931 18.3897 3.51996 18.5303C3.66062 18.671 3.85138 18.75 4.05029 18.75H12.3003C12.4992 18.75 12.69 18.671 12.8306 18.5303C12.9713 18.3897 13.0503 18.1989 13.0503 18C13.0503 17.8011 12.9713 17.6103 12.8306 17.4697C12.69 17.329 12.4992 17.25 12.3003 17.25ZM22.5809 17.4694L20.6778 15.5625C21.1894 14.787 21.395 13.8493 21.2546 12.9309C21.1143 12.0125 20.638 11.1789 19.9182 10.5916C19.1983 10.0044 18.286 9.70522 17.3582 9.75216C16.4303 9.7991 15.5529 10.1888 14.896 10.8457C14.2391 11.5026 13.8494 12.38 13.8024 13.3079C13.7555 14.2357 14.0547 15.148 14.6419 15.8679C15.2292 16.5877 16.0628 17.064 16.9812 17.2043C17.8995 17.3447 18.8373 17.1391 19.6128 16.6275L21.5159 18.5306C21.6566 18.6714 21.8475 18.7504 22.0465 18.7504C22.2456 18.7504 22.4364 18.6714 22.5772 18.5306C22.7179 18.3899 22.797 18.199 22.797 18C22.797 17.801 22.7179 17.6101 22.5772 17.4694H22.5809Z" fill="#4252B8"/>
</svg>
