<svg width="25" height="24" viewBox="0 0 25 24" fill="none" xmlns="http://www.w3.org/2000/svg">
	<path d="M21.3256 5.51906C21.2552 5.43481 21.1672 5.36705 21.0677 5.32056C20.9683 5.27407 20.8598 5.24998 20.75 5.25H5.62625L5.16781 2.73187C5.10502 2.38625 4.92292 2.07363 4.65325 1.84851C4.38359 1.62339 4.04347 1.50005 3.69219 1.5H2C1.80109 1.5 1.61032 1.57902 1.46967 1.71967C1.32902 1.86032 1.25 2.05109 1.25 2.25C1.25 2.44891 1.32902 2.63968 1.46967 2.78033C1.61032 2.92098 1.80109 3 2 3H3.6875L6.08375 16.1522C6.15434 16.5422 6.32671 16.9067 6.58344 17.2087C6.22911 17.5397 5.97336 17.9623 5.84455 18.4298C5.71575 18.8972 5.71892 19.3912 5.85371 19.8569C5.98851 20.3226 6.24966 20.7419 6.60821 21.0683C6.96676 21.3947 7.4087 21.6154 7.88502 21.7059C8.36134 21.7965 8.85344 21.7533 9.30673 21.5813C9.76003 21.4092 10.1568 21.115 10.4531 20.7312C10.7494 20.3474 10.9336 19.889 10.9853 19.407C11.037 18.9249 10.9541 18.4379 10.7459 18H15.0041C14.8363 18.3513 14.7495 18.7357 14.75 19.125C14.75 19.6442 14.904 20.1517 15.1924 20.5834C15.4808 21.0151 15.8908 21.3515 16.3705 21.5502C16.8501 21.7489 17.3779 21.8008 17.8871 21.6996C18.3963 21.5983 18.864 21.3483 19.2312 20.9812C19.5983 20.614 19.8483 20.1463 19.9496 19.6371C20.0508 19.1279 19.9989 18.6001 19.8002 18.1205C19.6015 17.6408 19.2651 17.2308 18.8334 16.9424C18.4017 16.654 17.8942 16.5 17.375 16.5H8.29719C8.12155 16.5 7.95149 16.4383 7.81665 16.3257C7.68182 16.2132 7.59077 16.0569 7.55938 15.8841L7.26219 14.25H18.1372C18.6641 14.2499 19.1743 14.0649 19.5788 13.7272C19.9833 13.3896 20.2564 12.9206 20.3506 12.4022L21.4906 6.13406C21.5099 6.02572 21.5051 5.91447 21.4766 5.80818C21.4481 5.7019 21.3966 5.60319 21.3256 5.51906ZM17.375 18C17.5975 18 17.815 18.066 18 18.1896C18.185 18.3132 18.3292 18.4889 18.4144 18.6945C18.4995 18.9 18.5218 19.1262 18.4784 19.3445C18.435 19.5627 18.3278 19.7632 18.1705 19.9205C18.0132 20.0778 17.8127 20.185 17.5945 20.2284C17.3762 20.2718 17.15 20.2495 16.9445 20.1644C16.7389 20.0792 16.5632 19.935 16.4396 19.75C16.316 19.565 16.25 19.3475 16.25 19.125C16.25 18.8266 16.3685 18.5405 16.5795 18.3295C16.7905 18.1185 17.0766 18 17.375 18ZM8.375 18C8.5975 18 8.81501 18.066 9.00002 18.1896C9.18502 18.3132 9.32922 18.4889 9.41436 18.6945C9.49951 18.9 9.52179 19.1262 9.47838 19.3445C9.43498 19.5627 9.32783 19.7632 9.1705 19.9205C9.01316 20.0778 8.81271 20.185 8.59448 20.2284C8.37625 20.2718 8.15005 20.2495 7.94448 20.1644C7.73891 20.0792 7.56321 19.935 7.4396 19.75C7.31598 19.565 7.25 19.3475 7.25 19.125C7.25 18.8266 7.36853 18.5405 7.5795 18.3295C7.79048 18.1185 8.07663 18 8.375 18Z" fill="#4252B8" />
</svg>
