<svg width="25" height="24" viewBox="0 0 25 24" fill="none" xmlns="http://www.w3.org/2000/svg">
<path d="M12.8999 2.25C10.9715 2.25 9.08648 2.82183 7.4831 3.89317C5.87972 4.96451 4.63004 6.48726 3.89208 8.26884C3.15413 10.0504 2.96104 12.0108 3.33725 13.9021C3.71346 15.7934 4.64205 17.5307 6.00562 18.8943C7.36918 20.2579 9.10646 21.1865 10.9978 21.5627C12.8891 21.9389 14.8495 21.7458 16.6311 21.0078C18.4126 20.2699 19.9354 19.0202 21.0067 17.4168C22.0781 15.8134 22.6499 13.9284 22.6499 12C22.6472 9.41498 21.6191 6.93661 19.7912 5.10872C17.9633 3.28084 15.4849 2.25273 12.8999 2.25ZM7.84491 18.5156C8.38747 17.6671 9.13491 16.9688 10.0183 16.4851C10.9018 16.0013 11.8927 15.7478 12.8999 15.7478C13.9071 15.7478 14.8981 16.0013 15.7815 16.4851C16.6649 16.9688 17.4123 17.6671 17.9549 18.5156C16.5096 19.6397 14.7309 20.2499 12.8999 20.2499C11.0689 20.2499 9.29022 19.6397 7.84491 18.5156ZM9.89991 11.25C9.89991 10.6567 10.0759 10.0766 10.4055 9.58329C10.7351 9.08994 11.2037 8.70542 11.7519 8.47836C12.3 8.2513 12.9032 8.19189 13.4852 8.30764C14.0671 8.4234 14.6017 8.70912 15.0212 9.12868C15.4408 9.54824 15.7265 10.0828 15.8423 10.6647C15.958 11.2467 15.8986 11.8499 15.6715 12.3981C15.4445 12.9462 15.06 13.4148 14.5666 13.7444C14.0733 14.0741 13.4933 14.25 12.8999 14.25C12.1043 14.25 11.3412 13.9339 10.7786 13.3713C10.216 12.8087 9.89991 12.0456 9.89991 11.25ZM19.0649 17.4759C18.2284 16.2638 17.0523 15.3261 15.6843 14.7806C16.4191 14.2019 16.9553 13.4085 17.2183 12.5108C17.4814 11.6132 17.4581 10.6559 17.1519 9.77207C16.8456 8.88825 16.2715 8.12183 15.5095 7.5794C14.7474 7.03696 13.8353 6.74548 12.8999 6.74548C11.9645 6.74548 11.0524 7.03696 10.2903 7.5794C9.5283 8.12183 8.95422 8.88825 8.64796 9.77207C8.34169 10.6559 8.31845 11.6132 8.58147 12.5108C8.8445 13.4085 9.3807 14.2019 10.1155 14.7806C8.74755 15.3261 7.57137 16.2638 6.73491 17.4759C5.67794 16.2873 4.9871 14.8185 4.74557 13.2464C4.50405 11.6743 4.72214 10.0658 5.37358 8.61478C6.02502 7.16372 7.08204 5.93192 8.41735 5.06769C9.75266 4.20346 11.3093 3.74367 12.8999 3.74367C14.4905 3.74367 16.0472 4.20346 17.3825 5.06769C18.7178 5.93192 19.7748 7.16372 20.4262 8.61478C21.0777 10.0658 21.2958 11.6743 21.0542 13.2464C20.8127 14.8185 20.1219 16.2873 19.0649 17.4759Z" fill="#98A2B3"/>
</svg>
