<svg width="25" height="24" viewBox="0 0 25 24" fill="none" xmlns="http://www.w3.org/2000/svg">
<path d="M20.6154 9.72843L13.1154 2.65218C13.1117 2.64898 13.1083 2.64554 13.1051 2.64187C12.829 2.39074 12.4691 2.25159 12.0959 2.25159C11.7226 2.25159 11.3628 2.39074 11.0867 2.64187L11.0763 2.65218L3.58478 9.72843C3.43197 9.86895 3.30999 10.0397 3.22656 10.2298C3.14313 10.4199 3.10007 10.6252 3.1001 10.8328V19.5C3.1001 19.8978 3.25813 20.2793 3.53944 20.5607C3.82074 20.842 4.20227 21 4.6001 21H9.1001C9.49792 21 9.87945 20.842 10.1608 20.5607C10.4421 20.2793 10.6001 19.8978 10.6001 19.5V15H13.6001V19.5C13.6001 19.8978 13.7581 20.2793 14.0394 20.5607C14.3207 20.842 14.7023 21 15.1001 21H19.6001C19.9979 21 20.3795 20.842 20.6608 20.5607C20.9421 20.2793 21.1001 19.8978 21.1001 19.5V10.8328C21.1001 10.6252 21.0571 10.4199 20.9736 10.2298C20.8902 10.0397 20.7682 9.86895 20.6154 9.72843ZM19.6001 19.5H15.1001V15C15.1001 14.6022 14.9421 14.2206 14.6608 13.9393C14.3795 13.658 13.9979 13.5 13.6001 13.5H10.6001C10.2023 13.5 9.82074 13.658 9.53944 13.9393C9.25813 14.2206 9.1001 14.6022 9.1001 15V19.5H4.6001V10.8328L4.61041 10.8234L12.1001 3.74999L19.5907 10.8216L19.601 10.8309L19.6001 19.5Z" fill="#98A2B3"/>
</svg>
