<svg width="25" height="24" viewBox="0 0 25 24" fill="none" xmlns="http://www.w3.org/2000/svg">
<path d="M21.6702 6.20156L13.4202 1.6875C13.1998 1.5657 12.952 1.50182 12.7002 1.50182C12.4484 1.50182 12.2006 1.5657 11.9802 1.6875L3.7302 6.20344C3.49459 6.33235 3.29792 6.52215 3.16071 6.75303C3.02351 6.9839 2.9508 7.24737 2.9502 7.51594V16.4822C2.9508 16.7508 3.02351 17.0142 3.16071 17.2451C3.29792 17.476 3.49459 17.6658 3.7302 17.7947L11.9802 22.3106C12.2006 22.4324 12.4484 22.4963 12.7002 22.4963C12.952 22.4963 13.1998 22.4324 13.4202 22.3106L21.6702 17.7947C21.9058 17.6658 22.1025 17.476 22.2397 17.2451C22.3769 17.0142 22.4496 16.7508 22.4502 16.4822V7.51688C22.4501 7.24783 22.3776 6.98377 22.2404 6.75236C22.1032 6.52095 21.9062 6.3307 21.6702 6.20156ZM12.7002 3L20.2321 7.125L17.4411 8.65313L9.90832 4.52813L12.7002 3ZM12.7002 11.25L5.16832 7.125L8.34645 5.385L15.8783 9.51L12.7002 11.25ZM4.4502 8.4375L11.9502 12.5419V20.5847L4.4502 16.4831V8.4375ZM20.9502 16.4794L13.4502 20.5847V12.5456L16.4502 10.9041V14.25C16.4502 14.4489 16.5292 14.6397 16.6699 14.7803C16.8105 14.921 17.0013 15 17.2002 15C17.3991 15 17.5899 14.921 17.7305 14.7803C17.8712 14.6397 17.9502 14.4489 17.9502 14.25V10.0828L20.9502 8.4375V16.4784V16.4794Z" fill="#98A2B3"/>
</svg>
