<svg width="25" height="24" viewBox="0 0 25 24" fill="none" xmlns="http://www.w3.org/2000/svg">
<path d="M17.0249 11.25C17.0249 12.0658 16.783 12.8634 16.3297 13.5417C15.8765 14.2201 15.2322 14.7488 14.4785 15.061C13.7247 15.3732 12.8953 15.4549 12.0952 15.2957C11.295 15.1366 10.56 14.7437 9.98309 14.1668C9.4062 13.5899 9.01333 12.8549 8.85417 12.0547C8.695 11.2546 8.77669 10.4252 9.0889 9.67143C9.40112 8.91769 9.92983 8.27345 10.6082 7.82019C11.2865 7.36693 12.0841 7.125 12.8999 7.125C13.9935 7.12624 15.042 7.56124 15.8154 8.33455C16.5887 9.10787 17.0237 10.1564 17.0249 11.25ZM22.6499 12C22.6499 13.9284 22.0781 15.8134 21.0067 17.4168C19.9354 19.0202 18.4126 20.2699 16.6311 21.0078C14.8495 21.7458 12.8891 21.9389 10.9978 21.5627C9.10646 21.1865 7.36918 20.2579 6.00562 18.8943C4.64205 17.5307 3.71346 15.7934 3.33725 13.9021C2.96104 12.0108 3.15413 10.0504 3.89208 8.26884C4.63004 6.48726 5.87972 4.96451 7.4831 3.89317C9.08648 2.82183 10.9715 2.25 12.8999 2.25C15.4849 2.25273 17.9633 3.28084 19.7912 5.10872C21.6191 6.93661 22.6472 9.41498 22.6499 12ZM21.1499 12C21.1487 10.8896 20.9236 9.79077 20.488 8.76934C20.0524 7.7479 19.4153 6.82481 18.6147 6.05525C17.8142 5.2857 16.8667 4.68549 15.8289 4.29053C14.791 3.89556 13.6842 3.71395 12.5746 3.75656C8.15897 3.92719 4.63772 7.605 4.64991 12.0234C4.65414 14.0349 5.39599 15.9749 6.73491 17.4759C7.28018 16.6851 7.97282 16.0068 8.77491 15.4781C8.84329 15.433 8.92459 15.4114 9.00637 15.4169C9.08814 15.4223 9.16589 15.4543 9.22772 15.5081C10.2469 16.3897 11.5495 16.8749 12.8971 16.8749C14.2447 16.8749 15.5472 16.3897 16.5665 15.5081C16.6283 15.4543 16.706 15.4223 16.7878 15.4169C16.8696 15.4114 16.9509 15.433 17.0193 15.4781C17.8224 16.0065 18.516 16.6848 19.0621 17.4759C20.4076 15.9694 21.1509 14.0199 21.1499 12Z" fill="#4252B8"/>
</svg>
