<svg width="25" height="24" viewBox="0 0 25 24" fill="none" xmlns="http://www.w3.org/2000/svg">
<path d="M21.3256 5.51906C21.2552 5.43481 21.1672 5.36705 21.0677 5.32056C20.9683 5.27407 20.8598 5.24998 20.75 5.25H5.62625L5.16781 2.73187C5.10502 2.38625 4.92292 2.07363 4.65325 1.84851C4.38359 1.62339 4.04347 1.50005 3.69219 1.5H2C1.80109 1.5 1.61032 1.57902 1.46967 1.71967C1.32902 1.86032 1.25 2.05109 1.25 2.25C1.25 2.44891 1.32902 2.63968 1.46967 2.78033C1.61032 2.92098 1.80109 3 2 3H3.6875L6.08375 16.1522C6.15434 16.5422 6.32671 16.9067 6.58344 17.2087C6.22911 17.5397 5.97336 17.9623 5.84455 18.4298C5.71575 18.8972 5.71892 19.3912 5.85371 19.8569C5.98851 20.3226 6.24966 20.7419 6.60821 21.0683C6.96676 21.3947 7.4087 21.6154 7.88502 21.7059C8.36134 21.7965 8.85344 21.7533 9.30673 21.5813C9.76003 21.4092 10.1568 21.115 10.4531 20.7312C10.7494 20.3474 10.9336 19.889 10.9853 19.407C11.037 18.9249 10.9541 18.4379 10.7459 18H15.0041C14.8363 18.3513 14.7495 18.7357 14.75 19.125C14.75 19.6442 14.904 20.1517 15.1924 20.5834C15.4808 21.0151 15.8908 21.3515 16.3705 21.5502C16.8501 21.7489 17.3779 21.8008 17.8871 21.6996C18.3963 21.5983 18.864 21.3483 19.2312 20.9812C19.5983 20.614 19.8483 20.1463 19.9496 19.6371C20.0508 19.1279 19.9989 18.6001 19.8002 18.1205C19.6015 17.6408 19.2651 17.2308 18.8334 16.9424C18.4017 16.654 17.8942 16.5 17.375 16.5H8.29719C8.12155 16.5 7.95149 16.4383 7.81665 16.3257C7.68182 16.2132 7.59077 16.0569 7.55938 15.8841L7.26219 14.25H18.1372C18.6641 14.2499 19.1743 14.0649 19.5788 13.7272C19.9833 13.3896 20.2564 12.9206 20.3506 12.4022L21.4906 6.13406C21.5099 6.02572 21.5051 5.91447 21.4766 5.80818C21.4481 5.7019 21.3966 5.60319 21.3256 5.51906ZM9.5 19.125C9.5 19.3475 9.43402 19.565 9.3104 19.75C9.18679 19.935 9.01109 20.0792 8.80552 20.1644C8.59995 20.2495 8.37375 20.2718 8.15552 20.2284C7.93729 20.185 7.73684 20.0778 7.5795 19.9205C7.42217 19.7632 7.31502 19.5627 7.27162 19.3445C7.22821 19.1262 7.25049 18.9 7.33564 18.6945C7.42078 18.4889 7.56498 18.3132 7.74998 18.1896C7.93499 18.066 8.1525 18 8.375 18C8.67337 18 8.95952 18.1185 9.1705 18.3295C9.38147 18.5405 9.5 18.8266 9.5 19.125ZM18.5 19.125C18.5 19.3475 18.434 19.565 18.3104 19.75C18.1868 19.935 18.0111 20.0792 17.8055 20.1644C17.6 20.2495 17.3738 20.2718 17.1555 20.2284C16.9373 20.185 16.7368 20.0778 16.5795 19.9205C16.4222 19.7632 16.315 19.5627 16.2716 19.3445C16.2282 19.1262 16.2505 18.9 16.3356 18.6945C16.4208 18.4889 16.565 18.3132 16.75 18.1896C16.935 18.066 17.1525 18 17.375 18C17.6734 18 17.9595 18.1185 18.1705 18.3295C18.3815 18.5405 18.5 18.8266 18.5 19.125ZM18.875 12.1341C18.8435 12.3074 18.7521 12.464 18.6166 12.5766C18.4812 12.6893 18.3105 12.7506 18.1344 12.75H6.98938L5.89906 6.75H19.8509L18.875 12.1341Z" fill="#98A2B3"/>
</svg>
