<svg width="25" height="24" viewBox="0 0 25 24" fill="none" xmlns="http://www.w3.org/2000/svg">
<path d="M3.30029 6C3.30029 5.80109 3.37931 5.61032 3.51996 5.46967C3.66062 5.32902 3.85138 5.25 4.05029 5.25H20.5503C20.7492 5.25 20.94 5.32902 21.0806 5.46967C21.2213 5.61032 21.3003 5.80109 21.3003 6C21.3003 6.19891 21.2213 6.38968 21.0806 6.53033C20.94 6.67098 20.7492 6.75 20.5503 6.75H4.05029C3.85138 6.75 3.66062 6.67098 3.51996 6.53033C3.37931 6.38968 3.30029 6.19891 3.30029 6ZM4.05029 12.75H10.8003C10.9992 12.75 11.19 12.671 11.3306 12.5303C11.4713 12.3897 11.5503 12.1989 11.5503 12C11.5503 11.8011 11.4713 11.6103 11.3306 11.4697C11.19 11.329 10.9992 11.25 10.8003 11.25H4.05029C3.85138 11.25 3.66062 11.329 3.51996 11.4697C3.37931 11.6103 3.30029 11.8011 3.30029 12C3.30029 12.1989 3.37931 12.3897 3.51996 12.5303C3.66062 12.671 3.85138 12.75 4.05029 12.75ZM12.3003 17.25H4.05029C3.85138 17.25 3.66062 17.329 3.51996 17.4697C3.37931 17.6103 3.30029 17.8011 3.30029 18C3.30029 18.1989 3.37931 18.3897 3.51996 18.5303C3.66062 18.671 3.85138 18.75 4.05029 18.75H12.3003C12.4992 18.75 12.69 18.671 12.8306 18.5303C12.9713 18.3897 13.0503 18.1989 13.0503 18C13.0503 17.8011 12.9713 17.6103 12.8306 17.4697C12.69 17.329 12.4992 17.25 12.3003 17.25ZM22.5809 18.5306C22.5113 18.6004 22.4285 18.6557 22.3375 18.6934C22.2465 18.7312 22.1489 18.7506 22.0503 18.7506C21.9517 18.7506 21.8541 18.7312 21.7631 18.6934C21.672 18.6557 21.5893 18.6004 21.5197 18.5306L19.6128 16.6275C18.8373 17.1391 17.8995 17.3447 16.9812 17.2043C16.0628 17.064 15.2292 16.5877 14.6419 15.8679C14.0547 15.148 13.7555 14.2357 13.8025 13.3079C13.8494 12.38 14.2391 11.5026 14.896 10.8457C15.5529 10.1888 16.4303 9.7991 17.3582 9.75216C18.286 9.70522 19.1983 10.0044 19.9182 10.5916C20.638 11.1789 21.1143 12.0125 21.2546 12.9309C21.395 13.8493 21.1894 14.787 20.6778 15.5625L22.5809 17.4656C22.6512 17.5353 22.707 17.6183 22.7451 17.7097C22.7832 17.8011 22.8028 17.8991 22.8028 17.9981C22.8028 18.0971 22.7832 18.1952 22.7451 18.2866C22.707 18.378 22.6512 18.4609 22.5809 18.5306ZM17.5503 15.75C17.9953 15.75 18.4303 15.618 18.8003 15.3708C19.1703 15.1236 19.4587 14.7722 19.629 14.361C19.7993 13.9499 19.8439 13.4975 19.7571 13.061C19.6702 12.6246 19.456 12.2237 19.1413 11.909C18.8266 11.5943 18.4257 11.38 17.9892 11.2932C17.5528 11.2064 17.1004 11.251 16.6893 11.4213C16.2781 11.5916 15.9267 11.88 15.6795 12.25C15.4323 12.62 15.3003 13.055 15.3003 13.5C15.3003 14.0967 15.5373 14.669 15.9593 15.091C16.3813 15.5129 16.9536 15.75 17.5503 15.75Z" fill="#98A2B3"/>
</svg>
