<svg width="25" height="24" viewBox="0 0 25 24" fill="none" xmlns="http://www.w3.org/2000/svg">
<path d="M21.1001 10.8328V19.5C21.1001 19.8978 20.9421 20.2793 20.6608 20.5607C20.3795 20.842 19.9979 21 19.6001 21H15.8501C15.4523 21 15.0707 20.842 14.7894 20.5607C14.5081 20.2793 14.3501 19.8978 14.3501 19.5V15.75C14.3501 15.5511 14.2711 15.3603 14.1304 15.2197C13.9898 15.079 13.799 15 13.6001 15H10.6001C10.4012 15 10.2104 15.079 10.0698 15.2197C9.92912 15.3603 9.8501 15.5511 9.8501 15.75V19.5C9.8501 19.8978 9.69206 20.2793 9.41076 20.5607C9.12945 20.842 8.74792 21 8.3501 21H4.6001C4.20227 21 3.82074 20.842 3.53944 20.5607C3.25813 20.2793 3.1001 19.8978 3.1001 19.5V10.8328C3.10007 10.6252 3.14313 10.4199 3.22656 10.2298C3.30999 10.0397 3.43197 9.86895 3.58478 9.72843L11.0848 2.65218L11.0951 2.64187C11.3712 2.39074 11.7311 2.25159 12.1043 2.25159C12.4776 2.25159 12.8374 2.39074 13.1135 2.64187C13.1167 2.64554 13.1202 2.64898 13.1238 2.65218L20.6238 9.72843C20.7751 9.86969 20.8955 10.0407 20.9775 10.2308C21.0595 10.4209 21.1012 10.6258 21.1001 10.8328Z" fill="#4252B8"/>
</svg>
