<svg width="20" height="18" viewBox="0 0 20 18" fill="none" xmlns="http://www.w3.org/2000/svg">
<path d="M18.125 15.5625H16.5625V2.125C16.5625 1.7106 16.3979 1.31317 16.1049 1.02015C15.8118 0.72712 15.4144 0.5625 15 0.5625H5C4.5856 0.5625 4.18817 0.72712 3.89515 1.02015C3.60212 1.31317 3.4375 1.7106 3.4375 2.125V15.5625H1.875C1.62636 15.5625 1.3879 15.6613 1.21209 15.8371C1.03627 16.0129 0.9375 16.2514 0.9375 16.5C0.9375 16.7486 1.03627 16.9871 1.21209 17.1629C1.3879 17.3387 1.62636 17.4375 1.875 17.4375H18.125C18.3736 17.4375 18.6121 17.3387 18.7879 17.1629C18.9637 16.9871 19.0625 16.7486 19.0625 16.5C19.0625 16.2514 18.9637 16.0129 18.7879 15.8371C18.6121 15.6613 18.3736 15.5625 18.125 15.5625ZM14.6875 15.5625H13.4375V2.4375H14.6875V15.5625ZM5.3125 2.4375H11.5625V15.5625H5.3125V2.4375ZM10.625 9.3125C10.625 9.49792 10.57 9.67918 10.467 9.83335C10.364 9.98752 10.2176 10.1077 10.0463 10.1786C9.87496 10.2496 9.68646 10.2682 9.5046 10.232C9.32275 10.1958 9.1557 10.1065 9.02459 9.97541C8.89348 9.8443 8.80419 9.67725 8.76801 9.4954C8.73184 9.31354 8.75041 9.12504 8.82136 8.95373C8.89232 8.78243 9.01248 8.63601 9.16665 8.533C9.32082 8.42998 9.50208 8.375 9.6875 8.375C9.93614 8.375 10.1746 8.47377 10.3504 8.64959C10.5262 8.8254 10.625 9.06386 10.625 9.3125Z" fill="#F79009"/>
</svg>
