<svg width="20" height="16" viewBox="0 0 20 16" fill="none" xmlns="http://www.w3.org/2000/svg">
<path d="M17.5 8.75H2.5C2.00272 8.75 1.52581 8.94754 1.17417 9.29918C0.822544 9.65081 0.625 10.1277 0.625 10.625V14C0.625 14.4973 0.822544 14.9742 1.17417 15.3258C1.52581 15.6775 2.00272 15.875 2.5 15.875H17.5C17.9973 15.875 18.4742 15.6775 18.8258 15.3258C19.1775 14.9742 19.375 14.4973 19.375 14V10.625C19.375 10.1277 19.1775 9.65081 18.8258 9.29918C18.4742 8.94754 17.9973 8.75 17.5 8.75ZM17.125 13.625H2.875V11H17.125V13.625ZM17.5 0.125H2.5C2.00272 0.125 1.52581 0.322544 1.17417 0.674175C0.822544 1.02581 0.625 1.50272 0.625 2V5.375C0.625 5.87228 0.822544 6.34919 1.17417 6.70083C1.52581 7.05246 2.00272 7.25 2.5 7.25H17.5C17.9973 7.25 18.4742 7.05246 18.8258 6.70083C19.1775 6.34919 19.375 5.87228 19.375 5.375V2C19.375 1.50272 19.1775 1.02581 18.8258 0.674175C18.4742 0.322544 17.9973 0.125 17.5 0.125ZM17.125 5H2.875V2.375H17.125V5Z" fill="#667085"/>
</svg>
