<svg width="24" height="24" viewBox="0 0 24 24" fill="none" xmlns="http://www.w3.org/2000/svg">
<path d="M12.3261 20.851L12.3257 20.8512C12.2256 20.9051 12.1137 20.9333 12 20.9333C11.8863 20.9333 11.7744 20.9051 11.6743 20.8512L11.6739 20.851C11.4689 20.7424 8.93739 19.3622 6.45813 17.191C3.97559 15.0169 1.56252 12.0645 1.5625 8.81253C1.56423 7.28806 2.17059 5.82652 3.24855 4.74855C4.32652 3.67059 5.78806 3.06423 7.31253 3.0625C9.23019 3.06251 10.9061 3.88684 11.95 5.27721L12 5.34378L12.05 5.27721C13.0939 3.88684 14.7698 3.06251 16.6875 3.0625C18.2119 3.06423 19.6735 3.67059 20.7514 4.74855C21.8294 5.82653 22.4358 7.28808 22.4375 8.81257C22.4375 12.0645 20.0244 15.0169 17.5419 17.191C15.0626 19.3622 12.5311 20.7424 12.3261 20.851Z" fill="#F04438" stroke="#F04438" stroke-width="0.125"/>
</svg>
