<svg width="20" height="21" viewBox="0 0 20 21" fill="none" xmlns="http://www.w3.org/2000/svg">
<path d="M17.625 5.64403L10.75 1.88075C10.5202 1.7543 10.2623 1.68799 10 1.68799C9.73775 1.68799 9.47975 1.7543 9.25 1.88075L2.375 5.64403C2.129 5.77863 1.92375 5.97695 1.78079 6.21819C1.63784 6.45943 1.56244 6.7347 1.5625 7.01512V14.4854C1.56244 14.7659 1.63784 15.0411 1.78079 15.2824C1.92375 15.5236 2.129 15.7219 2.375 15.8565L9.25 19.6198C9.47971 19.7464 9.73772 19.8128 10 19.8128C10.2623 19.8128 10.5203 19.7464 10.75 19.6198L17.625 15.8565C17.871 15.7219 18.0762 15.5236 18.2192 15.2824C18.3622 15.0411 18.4376 14.7659 18.4375 14.4854V7.01512C18.4376 6.7347 18.3622 6.45943 18.2192 6.21819C18.0762 5.97695 17.871 5.77863 17.625 5.64403ZM10 3.60731L15.625 6.68778L13.9508 7.60418L8.32578 4.5245L10 3.60731ZM10 9.7659L4.375 6.68778L6.37187 5.59403L11.9969 8.67293L10 9.7659ZM3.4375 8.312L9.0625 11.3901V17.38L3.4375 14.3003V8.312ZM10.9375 17.38V11.3901L12.8125 10.3643V12.6253C12.8125 12.8739 12.9113 13.1124 13.0871 13.2882C13.2629 13.464 13.5014 13.5628 13.75 13.5628C13.9986 13.5628 14.2371 13.464 14.4129 13.2882C14.5887 13.1124 14.6875 12.8739 14.6875 12.6253V9.33778L16.5625 8.312V14.3003L10.9375 17.38Z" fill="#17B26A"/>
</svg>
