<svg width="24" height="24" viewBox="0 0 24 24" fill="none" xmlns="http://www.w3.org/2000/svg">
<path d="M11.95 5.27721L12 5.34378L12.05 5.27721C13.0939 3.88684 14.7698 3.06251 16.6875 3.0625C18.2119 3.06423 19.6735 3.67059 20.7514 4.74855C21.8294 5.82653 22.4358 7.28808 22.4375 8.81257C22.4375 12.0645 20.0244 15.0169 17.5419 17.191C15.0626 19.3622 12.5311 20.7424 12.3261 20.851L12.3257 20.8512C12.2256 20.9051 12.1137 20.9333 12 20.9333C11.8863 20.9333 11.7744 20.9051 11.6743 20.8512L11.6739 20.851C11.4689 20.7424 8.93739 19.3622 6.45813 17.191C3.97559 15.0169 1.56252 12.0645 1.5625 8.81253C1.56423 7.28806 2.17059 5.82652 3.24855 4.74855C4.32652 3.67059 5.78806 3.06423 7.31253 3.0625C9.23019 3.06251 10.9061 3.88684 11.95 5.27721ZM11.9685 19.4415L12 19.4599L12.0315 19.4415C12.8881 18.9413 15.1426 17.5514 17.1838 15.6561C19.2218 13.7638 21.0625 11.3536 21.0625 8.8125V8.81242C21.061 7.65258 20.5996 6.54068 19.7794 5.72055C18.9593 4.90042 17.8474 4.43901 16.6876 4.4375H16.6875C14.8414 4.4375 13.2859 5.41883 12.6359 7.0075C12.5841 7.1336 12.496 7.24145 12.3828 7.31735C12.2696 7.39325 12.1363 7.43377 12 7.43377C11.8637 7.43377 11.7304 7.39325 11.6172 7.31735C11.504 7.24145 11.4159 7.1336 11.3641 7.0075C10.7141 5.4217 9.15864 4.4375 7.3125 4.4375H7.31242C6.15258 4.43901 5.04068 4.90042 4.22055 5.72055C3.40042 6.54068 2.93901 7.65258 2.9375 8.81242V8.8125C2.9375 11.3574 4.77774 13.7678 6.81553 15.6593C8.85644 17.5537 11.111 18.9418 11.9685 19.4415Z" fill="white" stroke="white" stroke-width="0.125"/>
</svg>
