<svg width="84" height="118" viewBox="0 0 84 118" fill="none" xmlns="http://www.w3.org/2000/svg">
<g filter="url(#filter0_b_427_20345)">
<path d="M1.13513 118V100.266L42.5108 61.8988C46.0297 58.4884 48.9811 55.4191 51.3649 52.6908C53.7865 49.9624 55.6216 47.2909 56.8703 44.6763C58.1189 42.0238 58.7433 39.1628 58.7433 36.0935C58.7433 32.683 57.9676 29.7463 56.4162 27.2832C54.8649 24.7823 52.7459 22.8687 50.0595 21.5424C47.373 20.1782 44.327 19.4961 40.9216 19.4961C37.3649 19.4961 34.2622 20.2161 31.6135 21.6561C28.9649 23.096 26.9216 25.1612 25.4838 27.8516C24.0459 30.5421 23.327 33.7441 23.327 37.4576H0C0 29.841 1.72162 23.2286 5.16486 17.6204C8.6081 12.0122 13.4324 7.67341 19.6378 4.60404C25.8432 1.53468 32.9946 0 41.0919 0C49.4162 0 56.6622 1.47784 62.8297 4.43353C69.0351 7.35132 73.8595 11.4059 77.3027 16.5973C80.746 21.7887 82.4676 27.738 82.4676 34.4451C82.4676 38.8407 81.5973 43.1795 79.8568 47.4615C78.1541 51.7434 75.1081 56.499 70.7189 61.7283C66.3297 66.9197 60.1432 73.1532 52.1595 80.4287L35.1892 97.0828V97.8786H84V118H1.13513Z" fill="white" fill-opacity="0.5"/>
</g>
<defs>
<filter id="filter0_b_427_20345" x="-20" y="-20" width="124" height="158" filterUnits="userSpaceOnUse" color-interpolation-filters="sRGB">
<feFlood flood-opacity="0" result="BackgroundImageFix"/>
<feGaussianBlur in="BackgroundImageFix" stdDeviation="10"/>
<feComposite in2="SourceAlpha" operator="in" result="effect1_backgroundBlur_427_20345"/>
<feBlend mode="normal" in="SourceGraphic" in2="effect1_backgroundBlur_427_20345" result="shape"/>
</filter>
</defs>
</svg>
