<svg width="85" height="118" viewBox="0 0 85 118" fill="none" xmlns="http://www.w3.org/2000/svg">
<g filter="url(#filter0_b_427_20344)">
<path d="M41.8224 118C33.8455 118 26.734 116.522 20.4879 113.566C14.2794 110.611 9.3503 106.537 5.70049 101.346C2.05067 96.1545 0.150508 90.2052 0 83.4981H23.705C23.9684 88.0074 25.8497 91.6641 29.349 94.4682C32.8483 97.2723 37.0061 98.6744 41.8224 98.6744C45.6603 98.6744 49.0468 97.8218 51.9817 96.1166C54.9542 94.3735 57.2683 91.9672 58.9238 88.8979C60.6171 85.7906 61.4637 82.2286 61.4637 78.2119C61.4637 74.1194 60.5982 70.5196 58.8674 67.4123C57.1742 64.3051 54.8225 61.8799 51.8123 60.1368C48.8022 58.3937 45.3593 57.5032 41.4837 57.4653C38.0973 57.4653 34.805 58.1663 31.6067 59.5684C28.446 60.9704 25.9814 62.8841 24.213 65.3092L2.48338 61.3873L7.95811 0H78.6216V20.1214H28.1073L25.116 49.2803H25.7933C27.8251 46.4004 30.8917 44.0132 34.9931 42.1185C39.0944 40.2238 43.6849 39.2765 48.7646 39.2765C55.7255 39.2765 61.934 40.9249 67.3899 44.2216C72.8458 47.5183 77.1541 52.0466 80.3148 57.8064C83.4755 63.5283 85.037 70.1217 84.9993 77.5867C85.037 85.4306 83.2309 92.403 79.5811 98.5038C75.9689 104.567 70.908 109.341 64.3986 112.828C57.9267 116.276 50.4013 118 41.8224 118Z" fill="white" fill-opacity="0.5"/>
</g>
<defs>
<filter id="filter0_b_427_20344" x="-16" y="-16" width="117" height="150" filterUnits="userSpaceOnUse" color-interpolation-filters="sRGB">
<feFlood flood-opacity="0" result="BackgroundImageFix"/>
<feGaussianBlur in="BackgroundImageFix" stdDeviation="8"/>
<feComposite in2="SourceAlpha" operator="in" result="effect1_backgroundBlur_427_20344"/>
<feBlend mode="normal" in="SourceGraphic" in2="effect1_backgroundBlur_427_20344" result="shape"/>
</filter>
</defs>
</svg>
