<svg width="87" height="118" viewBox="0 0 87 118" fill="none" xmlns="http://www.w3.org/2000/svg">
<g filter="url(#filter0_b_427_20342)">
<path d="M43.194 118C34.8924 118 27.4989 116.561 21.0133 113.682C14.5648 110.765 9.46895 106.765 5.72584 101.68C2.0198 96.5574 0.111181 90.6499 0 83.9572H24.2375C24.3858 86.7614 25.2938 89.2291 26.9615 91.3603C28.6663 93.4541 30.927 95.0805 33.7436 96.2395C36.5602 97.3986 39.7288 97.9781 43.2496 97.9781C46.9186 97.9781 50.1614 97.3238 52.9779 96.0152C55.7945 94.7066 57.9996 92.8932 59.5932 90.5751C61.1868 88.257 61.9836 85.5836 61.9836 82.5551C61.9836 79.4892 61.1312 76.7785 59.4265 74.423C57.7587 72.0301 55.3498 70.1607 52.1997 68.8146C49.0866 67.4686 45.3805 66.7956 41.0815 66.7956H30.4637V48.961H41.0815C44.7135 48.961 47.9192 48.3254 50.6987 47.0542C53.5153 45.783 55.7019 44.0257 57.2584 41.7823C58.815 39.5016 59.5932 36.847 59.5932 33.8184C59.5932 30.9395 58.9076 28.4157 57.5364 26.2471C56.2022 24.0412 54.3121 22.3213 51.8661 21.0875C49.4572 19.8536 46.6406 19.2367 43.4163 19.2367C40.155 19.2367 37.1717 19.8349 34.4662 21.0314C31.7608 22.1904 29.5928 23.8542 27.9621 26.0228C26.3315 28.1914 25.4605 30.7338 25.3494 33.6502H2.27922C2.3904 27.0323 4.26195 21.1996 7.89388 16.1521C11.5258 11.1046 16.4178 7.16002 22.5698 4.31845C28.7589 1.43948 35.7448 0 43.5275 0C51.3843 0 58.2591 1.43948 64.1517 4.31845C70.0443 7.19741 74.6213 11.0859 77.8826 15.9838C81.181 20.8444 82.8116 26.3032 82.7746 32.3603C82.8116 38.7912 80.8289 44.1565 76.8264 48.4563C72.8609 52.756 67.6909 55.4854 61.3165 56.6445V57.5418C69.6922 58.6261 76.0666 61.5612 80.4398 66.347C84.85 71.0954 87.0365 77.0402 86.9995 84.1816C87.0365 90.7247 85.165 96.5387 81.3848 101.624C77.6417 106.708 72.4718 110.709 65.875 113.625C59.2782 116.542 51.7179 118 43.194 118Z" fill="white" fill-opacity="0.5"/>
</g>
<defs>
<filter id="filter0_b_427_20342" x="-20" y="-20" width="127" height="158" filterUnits="userSpaceOnUse" color-interpolation-filters="sRGB">
<feFlood flood-opacity="0" result="BackgroundImageFix"/>
<feGaussianBlur in="BackgroundImageFix" stdDeviation="10"/>
<feComposite in2="SourceAlpha" operator="in" result="effect1_backgroundBlur_427_20342"/>
<feBlend mode="normal" in="SourceGraphic" in2="effect1_backgroundBlur_427_20342" result="shape"/>
</filter>
</defs>
</svg>
