<svg width="21" height="20" viewBox="0 0 21 20" fill="none" xmlns="http://www.w3.org/2000/svg">
<path d="M12.8314 4.68709L12.8521 4.69743L12.8745 4.69183L17.5378 3.5262C17.6667 3.49398 17.8013 3.49155 17.9313 3.51909C18.0613 3.54664 18.1833 3.60343 18.2881 3.68516L18.3266 3.63588L18.2881 3.68516C18.393 3.76697 18.4779 3.87162 18.5362 3.99114C18.5946 4.11067 18.625 4.24194 18.625 4.37494V15.6248C18.6247 15.8201 18.5591 16.0097 18.4385 16.1634C18.318 16.317 18.1496 16.426 17.96 16.4729L17.9598 16.4729L12.9598 17.7229C12.7571 17.7736 12.543 17.75 12.3561 17.6565L12.3561 17.6565L7.66858 15.3128L7.6479 15.3025L7.62547 15.3081L2.96219 16.4737C2.8332 16.5059 2.69856 16.5083 2.56849 16.4808C2.43843 16.4532 2.31636 16.3963 2.21155 16.3145C2.10675 16.2327 2.02197 16.1281 1.96366 16.0086C1.90534 15.8891 1.87502 15.7579 1.875 15.6249V4.37499C1.87532 4.17972 1.94096 3.99017 2.06146 3.83651C2.18196 3.68284 2.35042 3.57389 2.54 3.52702L2.54016 3.52698L7.54016 2.27698C7.74288 2.2263 7.95704 2.24984 8.14391 2.34334L8.14392 2.34334L12.8314 4.68709ZM8.71545 4.58623L8.625 4.541V4.64213V13.7953V13.8339L8.65955 13.8512L11.7845 15.4137L11.875 15.4589V15.3578V6.20463V6.166L11.8405 6.14873L8.71545 4.58623ZM3.67234 5.05025L3.625 5.06208V5.11088V14.4242V14.5042L3.70266 14.4848L6.82766 13.7035L6.875 13.6917V13.6429V4.32963V4.24958L6.79734 4.269L3.67234 5.05025ZM16.8277 14.9535L16.875 14.9417V14.8929V5.57572V5.49568L16.7973 5.51509L13.6723 6.29634L13.625 6.30818V6.35697V15.6742V15.7542L13.7027 15.7348L16.8277 14.9535Z" fill="#101828" stroke="#101828" stroke-width="0.125"/>
</svg>
