<svg width="16" height="16" viewBox="0 0 16 16" fill="none" xmlns="http://www.w3.org/2000/svg">
<path d="M14.2883 3.03672L3.03828 14.2867C2.95107 14.3739 2.84755 14.4431 2.73361 14.4903C2.61967 14.5375 2.49755 14.5618 2.37422 14.5618C2.25089 14.5618 2.12877 14.5375 2.01483 14.4903C1.90089 14.4431 1.79736 14.3739 1.71015 14.2867C1.62295 14.1995 1.55377 14.096 1.50658 13.982C1.45938 13.8681 1.43509 13.746 1.43509 13.6227C1.43509 13.4993 1.45938 13.3772 1.50658 13.2633C1.55377 13.1493 1.62295 13.0458 1.71015 12.9586L12.9602 1.70859C13.1363 1.53247 13.3751 1.43353 13.6242 1.43353C13.8733 1.43353 14.1122 1.53247 14.2883 1.70859C14.4644 1.88471 14.5633 2.12358 14.5633 2.37266C14.5633 2.62173 14.4644 2.8606 14.2883 3.03672ZM1.72812 6.14609C1.21716 5.63461 0.899347 4.96178 0.828842 4.24225C0.758337 3.52272 0.9395 2.801 1.34146 2.20006C1.74343 1.59912 2.34132 1.15615 3.03327 0.946619C3.72522 0.737087 4.46842 0.773961 5.13623 1.05096C5.80404 1.32795 6.35515 1.82793 6.69566 2.46571C7.03616 3.10348 7.14499 3.83959 7.00361 4.54861C6.86223 5.25763 6.47938 5.8957 5.92029 6.35409C5.36121 6.81248 4.66048 7.06284 3.9375 7.0625C3.52692 7.06351 3.12022 6.98303 2.74097 6.82572C2.36172 6.66842 2.01745 6.43741 1.72812 6.14609ZM2.6875 3.9375C2.68736 4.2267 2.78751 4.507 2.97088 4.73064C3.15425 4.95428 3.40949 5.10741 3.69311 5.16396C3.97673 5.2205 4.27118 5.17695 4.52629 5.04072C4.7814 4.9045 4.98138 4.68403 5.09216 4.41689C5.20294 4.14975 5.21766 3.85246 5.13381 3.57568C5.04997 3.2989 4.87274 3.05975 4.63234 2.89899C4.39193 2.73824 4.10322 2.66581 3.81541 2.69406C3.52759 2.7223 3.25847 2.84948 3.05391 3.05391C2.93736 3.16959 2.84496 3.30726 2.78206 3.45895C2.71916 3.61063 2.68702 3.77329 2.6875 3.9375ZM15.1875 12.0625C15.1875 12.7855 14.9368 13.486 14.4781 14.0449C14.0195 14.6037 13.3813 14.9863 12.6722 15.1273C11.9631 15.2684 11.2271 15.1592 10.5895 14.8184C9.95187 14.4777 9.45215 13.9263 9.17544 13.2584C8.89874 12.5905 8.86218 11.8473 9.07199 11.1555C9.2818 10.4636 9.72499 9.86594 10.3261 9.46422C10.9271 9.06251 11.6489 8.88163 12.3684 8.9524C13.0879 9.02317 13.7606 9.34121 14.2719 9.85234C14.5632 10.1418 14.7941 10.4862 14.9513 10.8656C15.1085 11.245 15.1888 11.6518 15.1875 12.0625ZM13.3125 12.0625C13.3131 11.8982 13.281 11.7353 13.2181 11.5835C13.1552 11.4317 13.0627 11.2939 12.9461 11.1781C12.7416 10.9737 12.4725 10.8466 12.1847 10.8183C11.8969 10.79 11.6082 10.8624 11.3678 11.0231C11.1274 11.1838 10.9502 11.4229 10.8663 11.6996C10.7824 11.9763 10.797 12.2736 10.9077 12.5407C11.0184 12.8079 11.2183 13.0284 11.4733 13.1647C11.7283 13.301 12.0227 13.3447 12.3063 13.2883C12.5899 13.2319 12.8452 13.0789 13.0287 12.8554C13.2122 12.6319 13.3125 12.3517 13.3125 12.0625Z" fill="#F04438"/>
</svg>
