<svg width="24" height="24" viewBox="0 0 24 24" fill="none" xmlns="http://www.w3.org/2000/svg">
<g id="Leading Icon">
<path id="Vector" d="M16.7885 15.7362L16.752 15.7801L16.7923 15.8204L21.4864 20.5135C21.5503 20.5774 21.601 20.6533 21.6355 20.7367C21.6701 20.8202 21.6879 20.9096 21.6879 21C21.6879 21.0903 21.6701 21.1798 21.6355 21.2632C21.601 21.3467 21.5503 21.4225 21.4864 21.4864C21.4225 21.5503 21.3467 21.601 21.2632 21.6355C21.1798 21.6701 21.0903 21.6879 21 21.6879C20.9096 21.6879 20.8202 21.6701 20.7367 21.6355C20.6533 21.601 20.5774 21.5503 20.5135 21.4864L15.8204 16.7923L15.7801 16.752L15.7362 16.7885C14.1152 18.1387 12.036 18.812 9.93116 18.6683C7.82635 18.5246 5.85796 17.575 4.43547 16.017C3.01299 14.4589 2.24593 12.4125 2.29387 10.3033C2.3418 8.19413 3.20104 6.18463 4.69283 4.69283C6.18463 3.20104 8.19413 2.3418 10.3033 2.29387C12.4125 2.24593 14.4589 3.01299 16.017 4.43547C17.575 5.85796 18.5246 7.82635 18.6683 9.93116C18.812 12.036 18.1387 14.1152 16.7885 15.7362ZM3.68747 10.5V10.5C3.68947 12.3062 4.40785 14.0378 5.685 15.3149C6.96214 16.5921 8.69375 17.3105 10.4999 17.3125H10.5C11.8474 17.3125 13.1645 16.9129 14.2848 16.1644C15.4051 15.4158 16.2783 14.3518 16.7939 13.107C17.3095 11.8622 17.4444 10.4924 17.1816 9.17092C16.9187 7.84942 16.2699 6.63555 15.3171 5.6828C14.3644 4.73006 13.1505 4.08123 11.829 3.81837C10.5075 3.55551 9.13776 3.69042 7.89294 4.20604C6.64812 4.72166 5.58415 5.59484 4.83558 6.71515C4.08702 7.83546 3.68747 9.15258 3.68747 10.5Z" fill="#0C111D" stroke="#0C111D" stroke-width="0.125"/>
</g>
</svg>
