<svg width="22" height="21" viewBox="0 0 22 21" fill="none" xmlns="http://www.w3.org/2000/svg">
<path id="Vector" d="M20.9844 9.66081L16.7563 13.3508L18.0229 18.8446C18.0899 19.1318 18.0708 19.4323 17.9679 19.7087C17.865 19.9851 17.6829 20.225 17.4445 20.3985C17.206 20.572 16.9216 20.6713 16.627 20.684C16.3323 20.6968 16.0405 20.6224 15.7879 20.4702L10.9963 17.5639L6.21507 20.4702C5.96248 20.6224 5.67062 20.6968 5.37598 20.684C5.08134 20.6713 4.797 20.572 4.5585 20.3985C4.32 20.225 4.13793 19.9851 4.03505 19.7087C3.93217 19.4323 3.91305 19.1318 3.98007 18.8446L5.24476 13.3564L1.01569 9.66081C0.792015 9.46789 0.630272 9.21323 0.550747 8.92876C0.471222 8.64429 0.477457 8.34267 0.568668 8.06172C0.65988 7.78078 0.832008 7.53302 1.06347 7.34951C1.29493 7.166 1.57542 7.05492 1.86976 7.03018L7.44413 6.54737L9.62007 1.35737C9.7337 1.08504 9.92537 0.852421 10.1709 0.688799C10.4165 0.525178 10.705 0.43787 11.0001 0.43787C11.2952 0.43787 11.5836 0.525178 11.8292 0.688799C12.0748 0.852421 12.2664 1.08504 12.3801 1.35737L14.5626 6.54737L20.1351 7.03018C20.4294 7.05492 20.7099 7.166 20.9414 7.34951C21.1728 7.53302 21.3449 7.78078 21.4362 8.06172C21.5274 8.34267 21.5336 8.64429 21.4541 8.92876C21.3746 9.21323 21.2128 9.46789 20.9891 9.66081H20.9844Z" fill="#F79009"/>
</svg>
